<svg xmlns="http://www.w3.org/2000/svg" viewBox="0 0 400 300" width="400" height="300">
  <defs>
    <linearGradient id="bg" x1="0" y1="0" x2="1" y2="1">
      <stop offset="0" stop-color="#f08c2e"/>
      <stop offset="1" stop-color="#f3c623"/>
    </linearGradient>
  </defs>
  <rect width="400" height="300" fill="url(#bg)"/>
  <g><line x1="0" y1="0" x2="400" y2="0" stroke="#fff" stroke-width="1" opacity="0.04"/><line x1="0" y1="10" x2="400" y2="10" stroke="#fff" stroke-width="1" opacity="0.04"/><line x1="0" y1="20" x2="400" y2="20" stroke="#fff" stroke-width="1" opacity="0.04"/><line x1="0" y1="30" x2="400" y2="30" stroke="#fff" stroke-width="1" opacity="0.04"/><line x1="0" y1="40" x2="400" y2="40" stroke="#fff" stroke-width="1" opacity="0.04"/><line x1="0" y1="50" x2="400" y2="50" stroke="#fff" stroke-width="1" opacity="0.04"/><line x1="0" y1="60" x2="400" y2="60" stroke="#fff" stroke-width="1" opacity="0.04"/><line x1="0" y1="70" x2="400" y2="70" stroke="#fff" stroke-width="1" opacity="0.04"/><line x1="0" y1="80" x2="400" y2="80" stroke="#fff" stroke-width="1" opacity="0.04"/><line x1="0" y1="90" x2="400" y2="90" stroke="#fff" stroke-width="1" opacity="0.04"/><line x1="0" y1="100" x2="400" y2="100" stroke="#fff" stroke-width="1" opacity="0.04"/><line x1="0" y1="110" x2="400" y2="110" stroke="#fff" stroke-width="1" opacity="0.04"/><line x1="0" y1="120" x2="400" y2="120" stroke="#fff" stroke-width="1" opacity="0.04"/><line x1="0" y1="130" x2="400" y2="130" stroke="#fff" stroke-width="1" opacity="0.04"/><line x1="0" y1="140" x2="400" y2="140" stroke="#fff" stroke-width="1" opacity="0.04"/><line x1="0" y1="150" x2="400" y2="150" stroke="#fff" stroke-width="1" opacity="0.04"/><line x1="0" y1="160" x2="400" y2="160" stroke="#fff" stroke-width="1" opacity="0.04"/><line x1="0" y1="170" x2="400" y2="170" stroke="#fff" stroke-width="1" opacity="0.04"/><line x1="0" y1="180" x2="400" y2="180" stroke="#fff" stroke-width="1" opacity="0.04"/><line x1="0" y1="190" x2="400" y2="190" stroke="#fff" stroke-width="1" opacity="0.04"/><line x1="0" y1="200" x2="400" y2="200" stroke="#fff" stroke-width="1" opacity="0.04"/><line x1="0" y1="210" x2="400" y2="210" stroke="#fff" stroke-width="1" opacity="0.04"/><line x1="0" y1="220" x2="400" y2="220" stroke="#fff" stroke-width="1" opacity="0.04"/><line x1="0" y1="230" x2="400" y2="230" stroke="#fff" stroke-width="1" opacity="0.04"/><line x1="0" y1="240" x2="400" y2="240" stroke="#fff" stroke-width="1" opacity="0.04"/><line x1="0" y1="250" x2="400" y2="250" stroke="#fff" stroke-width="1" opacity="0.04"/><line x1="0" y1="260" x2="400" y2="260" stroke="#fff" stroke-width="1" opacity="0.04"/><line x1="0" y1="270" x2="400" y2="270" stroke="#fff" stroke-width="1" opacity="0.04"/><line x1="0" y1="280" x2="400" y2="280" stroke="#fff" stroke-width="1" opacity="0.04"/><line x1="0" y1="290" x2="400" y2="290" stroke="#fff" stroke-width="1" opacity="0.04"/></g>
  
      
        <g transform="translate(130 150)">
          <path d="M0 60 L0 20 Q0 0 20 0 Q40 0 40 20 L40 35 Q40 48 28 48 L18 48"
            fill="none" stroke="#fff" stroke-width="12" stroke-linecap="round"/>
        </g>
        <g transform="translate(180 150)">
          <path d="M0 60 L0 20 Q0 0 20 0 Q40 0 40 20 L40 35 Q40 48 28 48 L18 48"
            fill="none" stroke="#fff" stroke-width="12" stroke-linecap="round"/>
        </g>
        <g transform="translate(230 150)">
          <path d="M0 60 L0 20 Q0 0 20 0 Q40 0 40 20 L40 35 Q40 48 28 48 L18 48"
            fill="none" stroke="#fff" stroke-width="12" stroke-linecap="round"/>
        </g>
    
</svg>