<svg xmlns="http://www.w3.org/2000/svg" viewBox="0 0 400 300" width="400" height="300">
  <defs>
    <linearGradient id="bg" x1="0" y1="0" x2="1" y2="1">
      <stop offset="0" stop-color="#33c4d8"/>
      <stop offset="1" stop-color="#2e6df0"/>
    </linearGradient>
  </defs>
  <rect width="400" height="300" fill="url(#bg)"/>
  <g><line x1="0" y1="0" x2="400" y2="0" stroke="#fff" stroke-width="1" opacity="0.04"/><line x1="0" y1="10" x2="400" y2="10" stroke="#fff" stroke-width="1" opacity="0.04"/><line x1="0" y1="20" x2="400" y2="20" stroke="#fff" stroke-width="1" opacity="0.04"/><line x1="0" y1="30" x2="400" y2="30" stroke="#fff" stroke-width="1" opacity="0.04"/><line x1="0" y1="40" x2="400" y2="40" stroke="#fff" stroke-width="1" opacity="0.04"/><line x1="0" y1="50" x2="400" y2="50" stroke="#fff" stroke-width="1" opacity="0.04"/><line x1="0" y1="60" x2="400" y2="60" stroke="#fff" stroke-width="1" opacity="0.04"/><line x1="0" y1="70" x2="400" y2="70" stroke="#fff" stroke-width="1" opacity="0.04"/><line x1="0" y1="80" x2="400" y2="80" stroke="#fff" stroke-width="1" opacity="0.04"/><line x1="0" y1="90" x2="400" y2="90" stroke="#fff" stroke-width="1" opacity="0.04"/><line x1="0" y1="100" x2="400" y2="100" stroke="#fff" stroke-width="1" opacity="0.04"/><line x1="0" y1="110" x2="400" y2="110" stroke="#fff" stroke-width="1" opacity="0.04"/><line x1="0" y1="120" x2="400" y2="120" stroke="#fff" stroke-width="1" opacity="0.04"/><line x1="0" y1="130" x2="400" y2="130" stroke="#fff" stroke-width="1" opacity="0.04"/><line x1="0" y1="140" x2="400" y2="140" stroke="#fff" stroke-width="1" opacity="0.04"/><line x1="0" y1="150" x2="400" y2="150" stroke="#fff" stroke-width="1" opacity="0.04"/><line x1="0" y1="160" x2="400" y2="160" stroke="#fff" stroke-width="1" opacity="0.04"/><line x1="0" y1="170" x2="400" y2="170" stroke="#fff" stroke-width="1" opacity="0.04"/><line x1="0" y1="180" x2="400" y2="180" stroke="#fff" stroke-width="1" opacity="0.04"/><line x1="0" y1="190" x2="400" y2="190" stroke="#fff" stroke-width="1" opacity="0.04"/><line x1="0" y1="200" x2="400" y2="200" stroke="#fff" stroke-width="1" opacity="0.04"/><line x1="0" y1="210" x2="400" y2="210" stroke="#fff" stroke-width="1" opacity="0.04"/><line x1="0" y1="220" x2="400" y2="220" stroke="#fff" stroke-width="1" opacity="0.04"/><line x1="0" y1="230" x2="400" y2="230" stroke="#fff" stroke-width="1" opacity="0.04"/><line x1="0" y1="240" x2="400" y2="240" stroke="#fff" stroke-width="1" opacity="0.04"/><line x1="0" y1="250" x2="400" y2="250" stroke="#fff" stroke-width="1" opacity="0.04"/><line x1="0" y1="260" x2="400" y2="260" stroke="#fff" stroke-width="1" opacity="0.04"/><line x1="0" y1="270" x2="400" y2="270" stroke="#fff" stroke-width="1" opacity="0.04"/><line x1="0" y1="280" x2="400" y2="280" stroke="#fff" stroke-width="1" opacity="0.04"/><line x1="0" y1="290" x2="400" y2="290" stroke="#fff" stroke-width="1" opacity="0.04"/></g>
  
      <rect x="160" y="105" width="80" height="150" rx="18" fill="#fff" opacity=".95"/>
      <rect x="172" y="118" width="20" height="34" rx="8" fill="#33c4d8" opacity=".6"/>
      <circle cx="180" cy="128" r="5" fill="#fff"/><circle cx="180" cy="142" r="5" fill="#fff"/>
    
</svg>