<svg xmlns="http://www.w3.org/2000/svg" viewBox="0 0 400 300" width="400" height="300">
  <defs>
    <linearGradient id="bg" x1="0" y1="0" x2="1" y2="1">
      <stop offset="0" stop-color="#6c5ce7"/>
      <stop offset="1" stop-color="#00d2ff"/>
    </linearGradient>
  </defs>
  <rect width="400" height="300" fill="url(#bg)"/>
  <g><line x1="0" y1="0" x2="400" y2="0" stroke="#fff" stroke-width="1" opacity="0.04"/><line x1="0" y1="10" x2="400" y2="10" stroke="#fff" stroke-width="1" opacity="0.04"/><line x1="0" y1="20" x2="400" y2="20" stroke="#fff" stroke-width="1" opacity="0.04"/><line x1="0" y1="30" x2="400" y2="30" stroke="#fff" stroke-width="1" opacity="0.04"/><line x1="0" y1="40" x2="400" y2="40" stroke="#fff" stroke-width="1" opacity="0.04"/><line x1="0" y1="50" x2="400" y2="50" stroke="#fff" stroke-width="1" opacity="0.04"/><line x1="0" y1="60" x2="400" y2="60" stroke="#fff" stroke-width="1" opacity="0.04"/><line x1="0" y1="70" x2="400" y2="70" stroke="#fff" stroke-width="1" opacity="0.04"/><line x1="0" y1="80" x2="400" y2="80" stroke="#fff" stroke-width="1" opacity="0.04"/><line x1="0" y1="90" x2="400" y2="90" stroke="#fff" stroke-width="1" opacity="0.04"/><line x1="0" y1="100" x2="400" y2="100" stroke="#fff" stroke-width="1" opacity="0.04"/><line x1="0" y1="110" x2="400" y2="110" stroke="#fff" stroke-width="1" opacity="0.04"/><line x1="0" y1="120" x2="400" y2="120" stroke="#fff" stroke-width="1" opacity="0.04"/><line x1="0" y1="130" x2="400" y2="130" stroke="#fff" stroke-width="1" opacity="0.04"/><line x1="0" y1="140" x2="400" y2="140" stroke="#fff" stroke-width="1" opacity="0.04"/><line x1="0" y1="150" x2="400" y2="150" stroke="#fff" stroke-width="1" opacity="0.04"/><line x1="0" y1="160" x2="400" y2="160" stroke="#fff" stroke-width="1" opacity="0.04"/><line x1="0" y1="170" x2="400" y2="170" stroke="#fff" stroke-width="1" opacity="0.04"/><line x1="0" y1="180" x2="400" y2="180" stroke="#fff" stroke-width="1" opacity="0.04"/><line x1="0" y1="190" x2="400" y2="190" stroke="#fff" stroke-width="1" opacity="0.04"/><line x1="0" y1="200" x2="400" y2="200" stroke="#fff" stroke-width="1" opacity="0.04"/><line x1="0" y1="210" x2="400" y2="210" stroke="#fff" stroke-width="1" opacity="0.04"/><line x1="0" y1="220" x2="400" y2="220" stroke="#fff" stroke-width="1" opacity="0.04"/><line x1="0" y1="230" x2="400" y2="230" stroke="#fff" stroke-width="1" opacity="0.04"/><line x1="0" y1="240" x2="400" y2="240" stroke="#fff" stroke-width="1" opacity="0.04"/><line x1="0" y1="250" x2="400" y2="250" stroke="#fff" stroke-width="1" opacity="0.04"/><line x1="0" y1="260" x2="400" y2="260" stroke="#fff" stroke-width="1" opacity="0.04"/><line x1="0" y1="270" x2="400" y2="270" stroke="#fff" stroke-width="1" opacity="0.04"/><line x1="0" y1="280" x2="400" y2="280" stroke="#fff" stroke-width="1" opacity="0.04"/><line x1="0" y1="290" x2="400" y2="290" stroke="#fff" stroke-width="1" opacity="0.04"/></g>
  
      <path d="M150 175 L250 175 L235 250 L165 250 Z" fill="#fff" opacity=".92"/>
      <path d="M150 175 L250 175 L246 195 L154 195 Z" fill="#fff"/>
      <path d="M200 175 C190 130 160 120 150 110 C185 115 200 140 200 175Z" fill="#bdf5d6"/>
      <path d="M200 175 C210 125 245 118 255 108 C220 116 205 142 200 175Z" fill="#9fe9c3"/>
      <path d="M200 175 C200 120 200 100 200 92 C212 110 210 150 200 175Z" fill="#d6fbe8"/>
    
</svg>